HIERARCHY
ROOT Hips
{
 OFFSET 0.000000 0.000000 0.000000
 CHANNELS 6 Xposition Yposition Zposition Yrotation Xrotation Zrotation
 JOINT Chest
 {
  OFFSET 0.000000 11.395451 -0.039534
  CHANNELS 3 Yrotation Xrotation Zrotation
  JOINT Chest2
  {
   OFFSET 0.000000 9.398669 0.071813
   CHANNELS 3 Yrotation Xrotation Zrotation
   JOINT Chest3
   {
    OFFSET 0.000000 8.489801 0.000000
    CHANNELS 3 Yrotation Xrotation Zrotation
    JOINT Chest4
    {
     OFFSET 0.000000 8.489801 0.000000
     CHANNELS 3 Yrotation Xrotation Zrotation
     JOINT Neck
     {
      OFFSET 0.000000 12.404889 0.000000
      CHANNELS 3 Yrotation Xrotation Zrotation
      JOINT Head
      {
       OFFSET 0.000000 8.903270 0.092239
       CHANNELS 3 Yrotation Xrotation Zrotation
       End Site
       {
        OFFSET 0.000000 17.592497 0.007158
       }
      }
     }
     JOINT RightCollar
     {
      OFFSET -3.196775 6.966722 0.000000
      CHANNELS 3 Yrotation Xrotation Zrotation
      JOINT RightShoulder
      {
       OFFSET -15.955896 0.000000 0.000000
       CHANNELS 3 Yrotation Xrotation Zrotation
       JOINT RightElbow
       {
        OFFSET -24.792472 0.000000 0.000000
        CHANNELS 3 Yrotation Xrotation Zrotation
        JOINT RightWrist
        {
         OFFSET -20.900115 0.000000 0.025002
         CHANNELS 3 Yrotation Xrotation Zrotation
         End Site
         {
          OFFSET -16.056692 0.000000 0.000000
         }
        }
       }
      }
     }
     JOINT LeftCollar
     {
      OFFSET 3.196775 6.966722 0.000000
      CHANNELS 3 Yrotation Xrotation Zrotation
      JOINT LeftShoulder
      {
       OFFSET 15.955896 0.000000 0.000000
       CHANNELS 3 Yrotation Xrotation Zrotation
       JOINT LeftElbow
       {
        OFFSET 24.792472 0.000000 0.000000
        CHANNELS 3 Yrotation Xrotation Zrotation
        JOINT LeftWrist
        {
         OFFSET 20.900115 0.000000 0.025002
         CHANNELS 3 Yrotation Xrotation Zrotation
         End Site
         {
          OFFSET 16.056692 0.000000 0.000000
         }
        }
       }
      }
     }
    }
   }
  }
 }
 JOINT RightHip
 {
  OFFSET -9.568995 0.193718 0.019767
  CHANNELS 3 Yrotation Xrotation Zrotation
  JOINT RightKnee
  {
   OFFSET 0.000000 -56.649296 0.015402
   CHANNELS 3 Yrotation Xrotation Zrotation
   JOINT RightAnkle
   {
    OFFSET 0.000000 -41.365147 0.021264
    CHANNELS 3 Yrotation Xrotation Zrotation
    JOINT RightToe
    {
     OFFSET 0.000000 -7.465940 17.672538
     CHANNELS 3 Yrotation Xrotation Zrotation
     End Site
     {
      OFFSET 0.000000 -1.736315 7.837145
     }
    }
   }
  }
 }
 JOINT LeftHip
 {
  OFFSET 9.568995 0.193718 0.019767
  CHANNELS 3 Yrotation Xrotation Zrotation
  JOINT LeftKnee
  {
   OFFSET 0.000000 -56.649296 0.015402
   CHANNELS 3 Yrotation Xrotation Zrotation
   JOINT LeftAnkle
   {
    OFFSET 0.000000 -41.365147 0.021264
    CHANNELS 3 Yrotation Xrotation Zrotation
    JOINT LeftToe
    {
     OFFSET 0.000000 -7.465940 17.672538
     CHANNELS 3 Yrotation Xrotation Zrotation
     End Site
     {
      OFFSET 0.000000 -1.736315 7.837145
     }
    }
   }
  }
 }
}
MOTION
Frames: 14
Frame Time: 0.016667
-28.812149 106.166452 0.699331 160.906668 -6.857323 0.386484 -1.764567 6.313000 -0.621065 -0.774565 2.808118 -0.251557 -0.774565 2.808118 -0.251557 -0.579651 2.106412 -0.185069 -2.780692 13.218007 -0.029628 -5.259249 -11.587944 1.076888 5.418795 1.347617 9.018585 -0.230326 -8.141970 77.232815 3.777390 -0.874692 2.720396 -4.038749 -4.047270 3.493224 -0.813031 6.690966 -5.400827 0.061779 -16.005572 -77.097181 -5.227191 7.411516 -7.968642 5.248166 -7.288099 -7.678859 11.628529 16.652298 0.318464 -1.087902 -0.702341 0.125921 2.613782 -7.803617 2.152558 0.018112 -1.251167 -1.817042 -7.592243 10.978584 -3.553613 -1.539858 3.385935 0.496486 -0.623455 -8.547588 0.505393 0.000000 0.000000 0.000000
-28.734956 106.166714 0.831549 160.910407 -6.791283 0.394918 -1.758712 6.258109 -0.591870 -0.772455 2.783604 -0.238897 -0.772455 2.783605 -0.238897 -0.578139 2.088010 -0.175616 -2.805480 13.237564 -0.048753 -5.297722 -11.551605 1.049827 5.367068 1.392246 8.910640 -0.205729 -8.111515 77.393931 3.843213 -0.846617 2.687561 -4.001855 -4.056592 3.412498 -0.789077 6.704822 -5.522417 0.048549 -15.830473 -77.197322 -5.199220 7.509919 -7.893829 5.335833 -7.154824 -7.360089 11.610610 16.512172 0.365739 -1.125803 -0.665558 0.123359 2.691647 -7.851108 2.094891 0.015791 -1.128897 -1.832615 -7.476113 10.888866 -3.502611 -1.764626 3.325523 0.553300 -0.508560 -8.461628 0.419298 0.000000 0.000000 0.000000
-28.657763 106.166976 0.963767 160.914155 -6.725242 0.403356 -1.752846 6.203213 -0.562690 -0.770334 2.759089 -0.226243 -0.770334 2.759090 -0.226243 -0.576617 2.069607 -0.166169 -2.830287 13.257095 -0.067900 -5.336227 -11.515318 1.022732 5.315320 1.436765 8.802616 -0.181082 -8.081093 77.555052 3.908963 -0.818377 2.654755 -3.964983 -4.065741 3.331737 -0.765050 6.718819 -5.643962 0.035233 -15.655272 -77.297296 -5.170876 7.608060 -7.818701 5.424675 -7.023076 -7.040966 11.592695 16.372045 0.413053 -1.163750 -0.628826 0.120717 2.769657 -7.898483 2.037243 0.013428 -1.006622 -1.848141 -7.360065 10.799044 -3.451941 -1.989451 3.265102 0.610109 -0.393827 -8.375488 0.333398 0.000000 0.000000 0.000000
-28.583173 106.168145 1.092097 160.913946 -6.665247 0.414931 -1.746364 6.152092 -0.536724 -0.767884 2.736264 -0.215006 -0.767884 2.736264 -0.215006 -0.574841 2.052472 -0.157784 -2.855286 13.276899 -0.085043 -5.375899 -11.478428 0.999489 5.267689 1.479475 8.700173 -0.148046 -8.057779 77.708417 3.975884 -0.797401 2.626902 -3.929619 -4.075994 3.253871 -0.742855 6.733964 -5.758820 0.010451 -15.495590 -77.389884 -5.123989 7.706163 -7.731038 5.483249 -6.919784 -6.772336 11.582246 16.240727 0.453423 -1.199513 -0.595601 0.116017 2.836277 -7.937929 1.986992 0.011316 -0.897242 -1.861611 -7.254093 10.716866 -3.401983 -2.187043 3.207022 0.660841 -0.288547 -8.294664 0.250466 0.000000 0.000000 0.000000
-28.511906 106.170639 1.214640 160.907184 -6.613839 0.432098 -1.738969 6.106210 -0.515883 -0.764948 2.715785 -0.206033 -0.764948 2.715785 -0.206033 -0.572687 2.037101 -0.151095 -2.881013 13.297928 -0.098719 -5.418313 -11.439083 0.983044 5.225440 1.519360 8.605742 -0.100611 -8.046021 77.850753 4.041598 -0.789344 2.604813 -3.895994 -4.088511 3.178616 -0.723973 6.750062 -5.864467 -0.034156 -15.359176 -77.474364 -5.041258 7.816764 -7.614777 5.492159 -6.858000 -6.575493 11.586832 16.122690 0.483166 -1.232863 -0.568677 0.107329 2.882695 -7.965124 1.948196 0.009642 -0.807985 -1.871171 -7.163679 10.646704 -3.352974 -2.342364 3.151115 0.703226 -0.196501 -8.221567 0.170842 0.000000 0.000000 0.000000
-28.443242 106.174039 1.333297 160.896473 -6.568471 0.452391 -1.730955 6.064109 -0.498245 -0.761684 2.697000 -0.198473 -0.761684 2.697000 -0.198473 -0.570281 2.023001 -0.145464 -2.906937 13.319229 -0.110394 -5.461894 -11.399132 0.970442 5.187313 1.557477 8.516919 -0.044866 -8.041466 77.985354 4.108549 -0.788569 2.587615 -3.863863 -4.102119 3.106245 -0.706958 6.767247 -5.963441 -0.090150 -15.238349 -77.551672 -4.939771 7.926988 -7.485929 5.469991 -6.823537 -6.429399 11.598901 16.013463 0.505906 -1.263996 -0.545240 0.096616 2.917626 -7.984480 1.916797 0.008249 -0.731628 -1.878710 -7.083284 10.584249 -3.304492 -2.470392 3.097484 0.739553 -0.113866 -8.153816 0.094130 0.000000 0.000000 0.000000
-28.377625 106.177992 1.449879 160.885644 -6.527556 0.471560 -1.722604 6.025184 -0.481258 -0.758255 2.679628 -0.191193 -0.758255 2.679628 -0.191193 -0.567749 2.009962 -0.140042 -2.931615 13.338255 -0.122438 -5.503047 -11.363468 0.956734 5.153660 1.595262 8.432119 0.009378 -8.037992 78.114314 4.185209 -0.785569 2.577699 -3.834007 -4.114604 3.040518 -0.689340 6.787010 -6.056695 -0.143699 -15.125594 -77.617098 -4.853350 7.999189 -7.380611 5.441851 -6.802010 -6.321540 11.603241 15.908435 0.525651 -1.291331 -0.520324 0.087736 2.955802 -8.001304 1.888007 0.006921 -0.659388 -1.887839 -7.006365 10.524231 -3.255897 -2.588853 3.048866 0.770578 -0.038501 -8.089740 0.021970 0.000000 0.000000 0.000000
-28.315619 106.182250 1.564867 160.876332 -6.490754 0.488952 -1.714219 5.989121 -0.464967 -0.754795 2.663532 -0.184209 -0.754795 2.663532 -0.184209 -0.565191 1.997880 -0.134841 -2.955042 13.354559 -0.135515 -5.541509 -11.332950 0.940684 5.124741 1.633020 8.351660 0.058719 -8.034122 78.239130 4.274907 -0.777960 2.575789 -3.806700 -4.124952 2.983545 -0.670858 6.810852 -6.143050 -0.191128 -15.019393 -77.666517 -4.791258 8.002483 -7.316606 5.416425 -6.792175 -6.261839 11.591228 15.806120 0.541325 -1.313575 -0.491565 0.083158 3.004339 -8.016663 1.860827 0.005774 -0.599268 -1.973215 -6.929328 10.464909 -3.207129 -2.704582 3.006476 0.795488 0.028814 -8.029736 -0.044611 -0.000000 -0.000000 -0.000000
-28.256661 106.187060 1.677781 160.866896 -6.458406 0.505225 -1.705502 5.956234 -0.449329 -0.751172 2.648850 -0.177506 -0.751172 2.648850 -0.177506 -0.562509 1.986859 -0.129848 -2.977212 13.368594 -0.148952 -5.577525 -11.306706 0.923545 5.100291 1.670488 8.275251 0.106578 -8.031325 78.358292 4.374314 -0.768119 2.581149 -3.781682 -4.134212 2.933219 -0.651808 6.837264 -6.223682 -0.236095 -14.921266 -77.704015 -4.744892 7.968217 -7.276587 5.384660 -6.794873 -6.240488 11.571501 15.707998 0.554080 -1.332028 -0.461311 0.080415 3.056103 -8.029479 1.836267 0.004684 -0.543256 -2.060185 -6.855770 10.408025 -3.158214 -2.810737 2.969096 0.815064 0.088902 -7.973470 -0.106691 -0.000000 -0.000000 -0.000000
-28.199501 106.192809 1.788994 160.856252 -6.429958 0.518108 -1.695845 5.926847 -0.431654 -0.747151 2.635716 -0.169896 -0.747151 2.635716 -0.169896 -0.559531 1.976998 -0.124175 -2.996678 13.379166 -0.163106 -5.608261 -11.287026 0.904118 5.079863 1.708251 8.200394 0.153426 -8.027863 78.469377 4.481888 -0.753668 2.594011 -3.758950 -4.143282 2.886989 -0.630553 6.863253 -6.303067 -0.275797 -14.828230 -77.737104 -4.721431 7.952374 -7.243975 5.345175 -6.799092 -6.215346 11.554707 15.613908 0.571261 -1.349010 -0.431675 0.075948 3.104468 -8.041829 1.812559 0.003064 -0.458583 -1.928382 -6.789953 10.353520 -3.108671 -2.904549 2.935832 0.832446 0.146298 -7.918177 -0.165768 0.000000 0.000000 0.000000
-28.143590 106.199049 1.898618 160.843846 -6.404673 0.526506 -1.684944 5.900790 -0.410304 -0.742618 2.624047 -0.160657 -0.742618 2.624048 -0.160657 -0.556176 1.968234 -0.117281 -3.012917 13.385381 -0.178696 -5.632466 -11.275621 0.880875 5.063609 1.746812 8.124866 0.199714 -8.021736 78.570959 4.601800 -0.731660 2.616846 -3.739309 -4.152630 2.845017 -0.605502 6.887489 -6.383628 -0.308307 -14.738125 -77.766353 -4.728599 7.981135 -7.214653 5.294972 -6.801544 -6.171675 11.547390 15.523095 0.597109 -1.366958 -0.403817 0.067406 3.144857 -8.052011 1.789085 0.000741 -0.307826 -1.360006 -6.732548 10.300640 -3.058218 -2.986746 2.907348 0.849475 0.203882 -7.864017 -0.222090 0.000000 -0.000000 -0.000000
-28.089477 106.206226 2.006541 160.830224 -6.383288 0.531515 -1.673110 5.878234 -0.386918 -0.737690 2.613928 -0.150511 -0.737690 2.613928 -0.150511 -0.552527 1.960631 -0.109707 -3.026439 13.388142 -0.194992 -5.651371 -11.270761 0.855362 5.051356 1.785694 8.050910 0.245024 -8.014927 78.664452 4.729894 -0.705081 2.647175 -3.721962 -4.161826 2.807139 -0.578257 6.911324 -6.462940 -0.335564 -14.653115 -77.791143 -4.758542 8.028467 -7.192618 5.237079 -6.805479 -6.124165 11.542952 15.436324 0.627345 -1.383428 -0.376579 0.057150 3.181843 -8.061742 1.766454 -0.000345 -0.128427 -0.572871 -6.682890 10.250149 -3.007082 -3.056605 2.883011 0.864308 0.258781 -7.810844 -0.275422 -0.000000 -0.000000 -0.000000
-28.037558 106.216073 2.112797 160.815961 -6.367453 0.534145 -1.660652 5.860021 -0.363730 -0.732475 2.605741 -0.140444 -0.732475 2.605741 -0.140444 -0.548662 1.954477 -0.102190 -3.037354 13.388946 -0.210175 -5.665863 -11.269575 0.830998 5.042178 1.824012 7.982720 0.288515 -8.011665 78.751691 4.852133 -0.680465 2.677812 -3.704506 -4.170414 2.770312 -0.551961 6.935781 -6.538215 -0.360581 -14.576694 -77.817201 -4.794938 8.071937 -7.173306 5.179163 -6.809802 -6.074774 11.532323 15.355719 0.656527 -1.393420 -0.348606 0.048706 3.222542 -8.078218 1.744729 0.000000 0.000000 0.000000 -6.643228 10.204273 -2.955530 -3.109184 2.859993 0.874571 0.306877 -7.755420 -0.326533 0.000000 0.000000 -0.000000
-27.987997 106.230742 2.218039 160.799610 -6.357389 0.533529 -1.646789 5.848298 -0.340767 -0.726625 2.600439 -0.130470 -0.726625 2.600439 -0.130470 -0.544319 1.950487 -0.094743 -3.044796 13.384961 -0.223670 -5.674639 -11.277330 0.808652 5.037171 1.860531 7.923231 0.328754 -8.014229 78.829775 4.970000 -0.659671 2.710234 -3.684452 -4.179058 2.732552 -0.526990 6.960412 -6.607860 -0.381169 -14.512145 -77.849057 -4.837548 8.105265 -7.154875 5.120767 -6.815740 -6.019578 11.511122 15.280880 0.682575 -1.392627 -0.318080 0.044723 3.271294 -8.109092 1.722107 0.000099 0.033942 0.142849 -6.617241 10.163428 -2.902095 -3.136121 2.836446 0.877868 0.344627 -7.694769 -0.375622 0.000000 -0.000000 -0.000000
